<svg xmlns="http://www.w3.org/2000/svg" width="24" height="24" viewBox="0 0 48 48"><g><path fill="#4285F4" d="M24 9.5c3.54 0 6.7 1.22 9.19 3.22l6.85-6.85C36.68 2.69 30.77 0 24 0 14.82 0 6.71 5.1 2.69 12.55l7.98 6.2C12.13 13.13 17.62 9.5 24 9.5z"/><path fill="#34A853" d="M46.1 24.55c0-1.64-.15-3.22-.42-4.74H24v9.01h12.42c-.54 2.9-2.18 5.36-4.65 7.04l7.19 5.59C43.93 37.13 46.1 31.3 46.1 24.55z"/><path fill="#FBBC05" d="M10.67 28.75c-1.13-3.38-1.13-7.12 0-10.5l-7.98-6.2C.9 16.09 0 19.94 0 24c0 4.06.9 7.91 2.69 11.45l7.98-6.2z"/><path fill="#EA4335" d="M24 48c6.48 0 11.92-2.15 15.89-5.85l-7.19-5.59c-2.01 1.35-4.59 2.14-8.7 2.14-6.38 0-11.87-3.63-14.33-8.85l-7.98 6.2C6.71 42.9 14.82 48 24 48z"/><path fill="none" d="M0 0h48v48H0z"/></g></svg> 