<?xml version="1.0" encoding="UTF-8"?>
<svg version="1.1" xmlns="http://www.w3.org/2000/svg" width="500" height="500">
<path d="M0 0 C1.30750214 -0.00175232 2.61500427 -0.00350464 3.96212769 -0.00531006 C7.50758187 -0.00981918 11.05300654 -0.00812203 14.59846115 -0.00493097 C18.33460308 -0.0023733 22.07074272 -0.0047543 25.80688477 -0.00631714 C32.07731574 -0.00812898 38.34773489 -0.0057585 44.61816406 -0.00097656 C51.83509933 0.00446415 59.05200634 0.00270079 66.26894093 -0.00280297 C72.50035498 -0.00736229 78.73176059 -0.00797091 84.96317577 -0.0053643 C88.66955719 -0.00381697 92.37592538 -0.00356489 96.08230591 -0.00690079 C100.21894973 -0.01036486 104.35554594 -0.00554394 108.4921875 0 C109.69672577 -0.00202423 110.90126404 -0.00404846 112.14230347 -0.00613403 C128.91150821 0.03522145 144.0077594 1.64389696 159.24609375 9.12939453 C159.24609375 9.78939453 159.24609375 10.44939453 159.24609375 11.12939453 C159.80554688 11.21962891 160.365 11.30986328 160.94140625 11.40283203 C168.32694087 13.73115311 174.67999204 21.12136597 179.24609375 27.12939453 C179.24609375 27.78939453 179.24609375 28.44939453 179.24609375 29.12939453 C179.90609375 29.12939453 180.56609375 29.12939453 181.24609375 29.12939453 C186.13860646 38.28687676 190.33645507 46.8236585 192.24609375 57.12939453 C192.41780688 57.87951183 192.58952002 58.62962914 192.76643658 59.40247726 C193.29748733 62.42157415 193.38112787 65.2451252 193.39326477 68.31085205 C193.40399773 70.17749512 193.40399773 70.17749512 193.41494751 72.08184814 C193.41778753 73.45349096 193.42049929 74.82513405 193.4230957 76.19677734 C193.42936562 77.6477474 193.43601288 79.09871587 193.44300842 80.54968262 C193.46400546 85.31061699 193.47441339 90.07155148 193.484375 94.83251953 C193.48842554 96.47805548 193.49254255 98.12359127 193.49672508 99.76912689 C193.51577484 107.50961155 193.53000087 115.25008675 193.53833705 122.99059033 C193.54807972 131.88778279 193.57432197 140.78472449 193.61483794 149.68182874 C193.64516069 156.58065396 193.6598215 163.47940803 193.66311806 170.37829852 C193.66545209 174.48745288 193.67419326 178.59633937 193.69957924 182.70542145 C193.93327115 222.64057763 193.93327115 222.64057763 183.24609375 241.12939453 C182.58609375 241.12939453 181.92609375 241.12939453 181.24609375 241.12939453 C181.10171875 241.74814453 180.95734375 242.36689453 180.80859375 243.00439453 C180.24609375 245.12939453 180.24609375 245.12939453 179.24609375 247.12939453 C178.58609375 247.12939453 177.92609375 247.12939453 177.24609375 247.12939453 C177.00375 247.70689453 176.76140625 248.28439453 176.51171875 248.87939453 C173.1390786 254.87519925 166.1693684 259.74466616 160.24609375 263.12939453 C159.25609375 263.12939453 158.26609375 263.12939453 157.24609375 263.12939453 C157.24609375 263.78939453 157.24609375 264.44939453 157.24609375 265.12939453 C155.7271514 265.75897627 154.2058218 266.38279917 152.68359375 267.00439453 C151.83667969 267.35244141 150.98976563 267.70048828 150.1171875 268.05908203 C132.32298136 274.6925684 112.8686973 273.43154312 94.18308711 273.39804554 C90.41100084 273.39290891 86.6389233 273.39769782 82.86683655 273.40081787 C76.53872909 273.4044351 70.21066864 273.3997174 63.88256836 273.39013672 C56.60991302 273.3792518 49.33736987 273.38278713 42.06471723 273.39378953 C35.77202245 273.40292124 29.47936106 273.40411931 23.18666178 273.39891219 C19.44949006 273.39582518 15.71237073 273.39529157 11.97520256 273.40198517 C-26.46468929 273.46141594 -26.46468929 273.46141594 -39.56640625 268.44189453 C-40.2730542 268.17844238 -40.97970215 267.91499023 -41.70776367 267.64355469 C-57.30989813 261.58782606 -71.05873141 249.50167092 -78.11328125 234.17626953 C-83.32359362 221.48762647 -85.20585709 208.94296262 -85.14208984 195.25219727 C-85.14616824 193.82296348 -85.15151714 192.39373286 -85.15802002 190.96450806 C-85.17154784 187.12772914 -85.16645637 183.29119568 -85.15688276 179.45441318 C-85.14921133 175.4126417 -85.15635217 171.37088925 -85.16104126 167.32911682 C-85.16647664 160.54676597 -85.15936518 153.76451359 -85.14501953 146.98217773 C-85.12869068 139.17268819 -85.13399217 131.36343365 -85.15049875 123.55394977 C-85.16416934 116.81294781 -85.16600639 110.07201605 -85.15818274 103.33100468 C-85.15353753 99.32055476 -85.1527936 95.31021484 -85.16279221 91.29977226 C-85.1715416 87.52797087 -85.16529681 83.75646875 -85.14810944 79.98469925 C-85.14233545 77.96318712 -85.15109104 75.94164928 -85.16049194 73.92015076 C-85.02359924 53.94294199 -78.55318292 34.69648923 -64.37890625 20.31689453 C-59.82460176 15.94326696 -55.22695465 12.27000362 -49.75390625 9.12939453 C-49.15707031 8.76458984 -48.56023437 8.39978516 -47.9453125 8.02392578 C-33.40519925 -0.13729907 -16.17012813 -0.02717396 0 0 Z M123.24609375 45.12939453 C123.06433594 45.68626953 122.88257813 46.24314453 122.6953125 46.81689453 C121.89103194 49.25860783 121.07037425 51.69436407 120.24609375 54.12939453 C119.88644531 55.21994141 119.88644531 55.21994141 119.51953125 56.33251953 C117.17463856 63.08374904 113.83994634 67.29653228 107.68359375 70.99267578 C103.09669586 73.13175797 98.18407538 74.1171083 93.24609375 75.12939453 C93.24609375 76.11939453 93.24609375 77.10939453 93.24609375 78.12939453 C94.29796875 78.36722656 94.29796875 78.36722656 95.37109375 78.60986328 C104.35497353 80.81921415 110.64374599 83.58777255 116.24609375 91.12939453 C116.90609375 91.12939453 117.56609375 91.12939453 118.24609375 91.12939453 C118.84142314 93.44893265 119.38533175 95.76938604 119.89453125 98.10986328 C120.13429688 99.16818359 120.3740625 100.22650391 120.62109375 101.31689453 C120.85570312 102.38294922 121.0903125 103.44900391 121.33203125 104.54736328 C121.63367188 105.39943359 121.9353125 106.25150391 122.24609375 107.12939453 C123.73109375 107.62439453 123.73109375 107.62439453 125.24609375 108.12939453 C125.45363281 107.29537109 125.66117188 106.46134766 125.875 105.60205078 C128.40664743 96.35465243 131.55526269 89.60060952 139.37109375 83.81689453 C144.67154332 81.17276222 150.56742917 79.73479143 156.24609375 78.12939453 C156.24609375 77.13939453 156.24609375 76.14939453 156.24609375 75.12939453 C155.48425781 74.98244141 154.72242188 74.83548828 153.9375 74.68408203 C144.09677376 72.54639618 136.42634498 68.98689838 130.53125 60.56298828 C127.96846556 55.71005604 126.61720751 50.42028056 125.24609375 45.12939453 C124.58609375 45.12939453 123.92609375 45.12939453 123.24609375 45.12939453 Z M31.09765625 78.10986328 C29.15250626 78.13104973 29.15250626 78.13104973 27.1680603 78.15266418 C24.45033718 78.18427693 21.73274767 78.22142921 19.01513672 78.26147461 C15.54895245 78.31120789 12.0830026 78.33714547 8.61654091 78.35790539 C5.27664514 78.38322329 1.93728857 78.43595217 -1.40234375 78.48486328 C-2.6378598 78.48922897 -3.87337585 78.49359467 -5.14633179 78.49809265 C-11.87234478 78.63128479 -16.27747468 79.1030787 -21.75390625 83.12939453 C-21.75390625 83.78939453 -21.75390625 84.44939453 -21.75390625 85.12939453 C-22.41390625 85.12939453 -23.07390625 85.12939453 -23.75390625 85.12939453 C-24.39328125 86.20189453 -25.03265625 87.27439453 -25.69140625 88.37939453 C-26.05105469 88.98267578 -26.41070312 89.58595703 -26.78125 90.20751953 C-28.9521123 94.49693421 -28.9022863 98.74166502 -28.89916992 103.46484375 C-28.90252853 104.19706146 -28.90588715 104.92927917 -28.90934753 105.6836853 C-28.91883417 108.10050155 -28.92079951 110.51724833 -28.921875 112.93408203 C-28.92508922 114.61793038 -28.92845342 116.30177845 -28.93196106 117.98562622 C-28.93794664 121.51451261 -28.93980155 125.04337452 -28.93920898 128.57226562 C-28.93910741 133.08702411 -28.95275772 137.60162517 -28.96998119 142.11634636 C-28.98111726 145.59425574 -28.9831277 149.07212726 -28.98259926 152.55005264 C-28.98377702 154.21416898 -28.98818736 155.87828637 -28.99593163 157.5423851 C-29.0057638 159.87341995 -29.00284083 162.20411557 -28.99682617 164.53515625 C-29.00244568 165.21795654 -29.00806519 165.90075684 -29.01385498 166.60424805 C-28.97281836 172.88467448 -27.37941122 177.99326249 -23.75390625 183.12939453 C-23.09390625 183.12939453 -22.43390625 183.12939453 -21.75390625 183.12939453 C-21.75390625 183.78939453 -21.75390625 184.44939453 -21.75390625 185.12939453 C-13.15677781 191.83934843 -4.66711773 191.4421302 5.796875 191.43017578 C7.22023136 191.43407006 8.64358657 191.43840622 10.06694031 191.44316101 C13.0432818 191.4505982 16.01950462 191.45035079 18.99584961 191.44506836 C22.78496439 191.43928546 26.57358847 191.45618791 30.36262226 191.47941303 C33.30112993 191.49424346 36.23952206 191.49500938 39.17806053 191.49190331 C40.57372189 191.49241213 41.96939048 191.49756629 43.36501503 191.50771523 C53.14247322 191.57008553 62.46700388 191.08315928 70.87109375 185.56689453 C71.52335937 185.15310547 72.175625 184.73931641 72.84765625 184.31298828 C73.30914062 183.92240234 73.770625 183.53181641 74.24609375 183.12939453 C74.24609375 182.46939453 74.24609375 181.80939453 74.24609375 181.12939453 C74.90609375 181.12939453 75.56609375 181.12939453 76.24609375 181.12939453 C77.81291463 179.05632507 77.81291463 179.05632507 79.30859375 176.44189453 C79.83582031 175.57177734 80.36304688 174.70166016 80.90625 173.80517578 C83.1379941 169.34819412 83.37434958 165.14625474 83.40722656 160.21264648 C83.41683411 159.04405594 83.42644165 157.87546539 83.43634033 156.67146301 C83.44059021 155.41621323 83.44484009 154.16096344 83.44921875 152.86767578 C83.45491882 151.56670456 83.4606189 150.26573334 83.4664917 148.92533875 C83.47697459 146.17247124 83.48283436 143.41963268 83.48632812 140.66674805 C83.49179474 137.16457151 83.5157944 133.66278729 83.54430008 130.16073322 C83.56757762 126.79222282 83.56938635 123.42376231 83.57421875 120.05517578 C83.59273895 118.18748283 83.59273895 118.18748283 83.6116333 116.28205872 C83.58425146 105.4761103 82.10398248 96.05546451 74.24609375 88.12939453 C61.09716227 77.5671381 47.29259907 77.91808685 31.09765625 78.10986328 Z M115.99609375 130.00439453 C114.93648437 130.80490234 114.93648437 130.80490234 113.85546875 131.62158203 C113.324375 132.11916016 112.79328125 132.61673828 112.24609375 133.12939453 C112.24609375 133.78939453 112.24609375 134.44939453 112.24609375 135.12939453 C111.65828125 135.40267578 111.07046875 135.67595703 110.46484375 135.95751953 C104.90778165 138.89258754 99.96772726 143.46839683 97.24609375 149.12939453 C96.33225132 154.32795099 96.46269647 158.63419015 99.49609375 163.06689453 C101.49712878 165.47040403 103.52786521 167.53595021 106.24609375 169.12939453 C106.90609375 169.12939453 107.56609375 169.12939453 108.24609375 169.12939453 C108.24609375 169.78939453 108.24609375 170.44939453 108.24609375 171.12939453 C108.90609375 171.12939453 109.56609375 171.12939453 110.24609375 171.12939453 C110.24609375 171.78939453 110.24609375 172.44939453 110.24609375 173.12939453 C112.3094368 174.99275987 112.3094368 174.99275987 114.93359375 176.81689453 C115.80371094 177.46013672 116.67382812 178.10337891 117.5703125 178.76611328 C120.15854268 180.3696241 120.15854268 180.3696241 123.015625 179.96142578 C125.41782908 179.35402111 125.41782908 179.35402111 126.24609375 177.12939453 C126.34601129 175.59803249 126.38441215 174.06243458 126.39135742 172.52783203 C126.39773727 171.57344238 126.40411713 170.61905273 126.41069031 169.63574219 C126.41180313 168.60239746 126.41291595 167.56905273 126.4140625 166.50439453 C126.4173909 165.44655762 126.4207193 164.3887207 126.42414856 163.29882812 C126.42921731 161.05941199 126.4315569 158.81998828 126.43139648 156.58056641 C126.43358471 153.14359188 126.45174591 149.70693729 126.47070312 146.27001953 C126.47363663 144.09814563 126.47562171 141.92627021 126.4765625 139.75439453 C126.48374802 138.7210498 126.49093353 137.68770508 126.49833679 136.62304688 C126.49526016 135.66865723 126.49218353 134.71426758 126.48901367 133.73095703 C126.49043869 132.88871582 126.49186371 132.04647461 126.49333191 131.17871094 C126.43289648 128.90464919 126.43289648 128.90464919 124.24609375 127.12939453 C119.92971356 127.12939453 119.23951075 127.49374952 115.99609375 130.00439453 Z " fill="#744DFD" transform="translate(195.75390625,111.87060546875)"/>
<path d="M0 0 C5.37729534 9.78043562 5.43998403 21.16919042 5.38818359 32.0390625 C5.39226042 33.49770498 5.39760847 34.95634436 5.40411377 36.41497803 C5.4176613 40.33652229 5.41254137 44.25782684 5.40297651 48.17937469 C5.39531408 52.3079029 5.40244362 56.43641229 5.40713501 60.56494141 C5.41257357 67.49450314 5.40545111 74.42396856 5.39111328 81.35351562 C5.37479042 89.33396182 5.38008028 97.31417798 5.3965925 105.29461861 C5.4102618 112.17997247 5.41210056 119.06525759 5.40427649 125.95062065 C5.39962974 130.04827513 5.39889158 134.14582193 5.40888596 138.24346924 C5.41763316 142.0981534 5.41139438 145.95254463 5.39420319 149.80719757 C5.3902793 151.21111823 5.39130084 152.6150641 5.39799118 154.0189743 C5.43718295 163.08798098 4.42780057 171.25363709 2 180 C1.67 180 1.34 180 1 180 C0.94527912 178.60461746 0.90688462 177.20859103 0.875 175.8125 C0.85179687 175.03519531 0.82859375 174.25789062 0.8046875 173.45703125 C1 171 1 171 1.99591351 168.73055458 C3.14765684 165.59845584 3.25431644 163.1872663 3.26069641 159.85409546 C3.27132362 157.99968842 3.27132362 157.99968842 3.28216553 156.1078186 C3.27987185 154.74554407 3.27736217 153.38326988 3.2746582 152.02099609 C3.27900765 150.57999406 3.28419158 149.13899434 3.29014587 147.69799805 C3.30352777 143.78856322 3.30411504 139.87922513 3.30158257 135.96977186 C3.30051148 132.69985798 3.30540022 129.42996356 3.310188 126.16005385 C3.32128218 118.4382307 3.32172227 110.71645617 3.31567383 102.99462891 C3.3096448 95.04840134 3.32191793 87.10235132 3.3432439 79.15615404 C3.3609105 72.32025765 3.36685297 65.48441749 3.36360615 58.64849913 C3.36179987 54.57201731 3.36436288 50.49566191 3.37832069 46.4192009 C3.39097559 42.57941831 3.38888328 38.73991002 3.37590981 34.90013123 C3.37356035 33.49859648 3.3762195 32.09704199 3.38453293 30.69552994 C3.42596446 23.16141661 3.00075201 16.49003978 0.66147137 9.29644203 C-0.26463056 6.08127735 -0.22136022 3.32040328 0 0 Z " fill="#9C87E2" transform="translate(384,157)"/>
<path d="M0 0 C1.32 0.33 2.64 0.66 4 1 C3.98952637 2.31718018 3.97905273 3.63436035 3.96826172 4.99145508 C3.93209717 9.87228687 3.90911241 14.75310679 3.89013672 19.6340332 C3.88007106 21.74766022 3.86641743 23.8612733 3.84912109 25.97485352 C3.8248977 29.01061442 3.81352262 32.04619143 3.8046875 35.08203125 C3.79436493 36.02899368 3.78404236 36.97595612 3.77340698 37.95161438 C3.77325592 38.83230087 3.77310486 39.71298737 3.77294922 40.62036133 C3.76628738 41.78285149 3.76628738 41.78285149 3.75949097 42.96882629 C3.88156735 45.31311545 3.88156735 45.31311545 6 48 C6 48.99 6 49.98 6 51 C5.34 50.67 4.68 50.34 4 50 C3.01 50 2.02 50 1 50 C0.67 50.33 0.34 50.66 0 51 C-1.69141656 50.91036938 -3.37959602 50.75422324 -5.0625 50.5625 C-5.98160156 50.46066406 -6.90070313 50.35882813 -7.84765625 50.25390625 C-8.55792969 50.17011719 -9.26820313 50.08632813 -10 50 C-10 49.01 -10 48.02 -10 47 C-11.32 46.67 -12.64 46.34 -14 46 C-14 45.34 -14 44.68 -14 44 C-16.97 44.495 -16.97 44.495 -20 45 C-20 44.34 -20 43.68 -20 43 C-20.99 42.67 -21.98 42.34 -23 42 C-22.34 40.68 -21.68 39.36 -21 38 C-21.66 38 -22.32 38 -23 38 C-22.67 37.01 -22.34 36.02 -22 35 C-20 36.375 -20 36.375 -18 38 C-18 38.66 -18 39.32 -18 40 C-17.34 40 -16.68 40 -16 40 C-16 40.66 -16 41.32 -16 42 C-15.278125 42.2475 -14.55625 42.495 -13.8125 42.75 C-11 44 -11 44 -8.4375 46.125 C-5.98412212 48.40647384 -5.98412212 48.40647384 -2 48 C-0.82440785 45.6488157 -0.84483537 44.17282086 -0.79467773 41.55029297 C-0.77473251 40.62948944 -0.75478729 39.70868591 -0.73423767 38.75997925 C-0.71752518 37.76410797 -0.70081268 36.76823669 -0.68359375 35.7421875 C-0.66281265 34.72399933 -0.64203156 33.70581116 -0.62062073 32.6567688 C-0.55510534 29.39624945 -0.49623098 26.13564794 -0.4375 22.875 C-0.39431668 20.66796017 -0.35070245 18.46092872 -0.30664062 16.25390625 C-0.19942195 10.83602499 -0.09765926 5.41806154 0 0 Z " fill="#A187F4" transform="translate(322,243)"/>
<path d="M0 0 C0.99 0.495 0.99 0.495 2 1 C3.09295916 4.27887749 3.12041382 6.67267573 3.11352539 10.1237793 C3.11344986 11.38486008 3.11337433 12.64594086 3.11329651 13.94523621 C3.10818989 15.32156412 3.10297389 16.69789163 3.09765625 18.07421875 C3.09579086 19.48240611 3.09436753 20.89059411 3.09336853 22.29878235 C3.08955288 26.0026733 3.07973072 29.70652495 3.06866455 33.41040039 C3.05842997 37.19091256 3.05386652 40.97143109 3.04882812 44.75195312 C3.0381076 52.16798665 3.0210426 59.58398782 3 67 C2.01 67.495 2.01 67.495 1 68 C1.00222061 67.2955777 1.00444122 66.5911554 1.00672913 65.86538696 C1.02686731 59.18737594 1.04204258 52.50937355 1.05181217 45.83133888 C1.05700384 42.39910194 1.06403297 38.96689033 1.07543945 35.53466797 C1.0885054 31.57780269 1.09325891 27.62094725 1.09765625 23.6640625 C1.10281754 22.44699615 1.10797882 21.22992981 1.11329651 19.97598267 C1.11373415 13.2520764 0.84170372 6.67338452 0 0 Z " fill="#6747D6" transform="translate(278,213)"/>
<path d="M0 0 C0 0.66 0 1.32 0 2 C-1.23363281 2.07347656 -1.23363281 2.07347656 -2.4921875 2.1484375 C-11.93052145 2.7805661 -20.59780382 3.3787921 -29 8 C-29.66 8 -30.32 8 -31 8 C-31.33 8.99 -31.66 9.98 -32 11 C-33.65 10.67 -35.3 10.34 -37 10 C-34.84179698 5.68359396 -28.91247092 4.30729261 -24.58984375 2.8515625 C-16.29455651 0.43246115 -8.67308441 -0.52652789 0 0 Z " fill="#9880E7" transform="translate(182,113)"/>
<path d="M0 0 C2.31 0 4.62 0 7 0 C7.33 0.99 7.66 1.98 8 3 C8.66 3 9.32 3 10 3 C10 18.84 10 34.68 10 51 C9.67 51 9.34 51 9 51 C8.99191315 50.44289841 8.98382629 49.88579681 8.97549438 49.31181335 C8.88952732 43.52054773 8.79002739 37.7296275 8.68261719 31.9387207 C8.64430196 29.77667027 8.6094536 27.61455553 8.578125 25.45239258 C8.53252983 22.34693396 8.47452616 19.24191901 8.4140625 16.13671875 C8.40251129 15.16788254 8.39096008 14.19904633 8.37905884 13.20085144 C8.35918915 12.3001442 8.33931946 11.39943695 8.31884766 10.47143555 C8.30552399 9.67867722 8.29220032 8.88591888 8.2784729 8.06913757 C8.11286418 5.69396892 8.11286418 5.69396892 6 3 C4.02 3.33 2.04 3.66 0 4 C0 2.68 0 1.36 0 0 Z " fill="#6E55CF" transform="translate(314,237)"/>
<path d="M0 0 C0 3 0 3 -1.9765625 5.12109375 C-6.48645097 9.06558323 -10.86648585 12.89287301 -16 16 C-16.66 15.67 -17.32 15.34 -18 15 C-17.67 14.01 -17.34 13.02 -17 12 C-13.4375 10.8125 -13.4375 10.8125 -10 10 C-10.33 8.02 -10.66 6.04 -11 4 C-9.125 2.9375 -9.125 2.9375 -7 2 C-6.34 2.33 -5.68 2.66 -5 3 C-4.67 2.34 -4.34 1.68 -4 1 C-1.9375 0.375 -1.9375 0.375 0 0 Z " fill="#8B6DF0" transform="translate(372,359)"/>
<path d="M0 0 C0.33 0 0.66 0 1 0 C1.07487747 6.02821218 1.12894187 12.05614596 1.16479492 18.0847168 C1.17976168 20.13001225 1.20014239 22.17527628 1.22631836 24.22045898 C1.36744252 35.54083051 1.46710634 46.1035662 -2 57 C-2.33 57 -2.66 57 -3 57 C-3.05472088 55.60461746 -3.09311538 54.20859103 -3.125 52.8125 C-3.14820313 52.03519531 -3.17140625 51.25789063 -3.1953125 50.45703125 C-3 48 -3 48 -2.01367188 45.96484375 C-0.55275391 41.69186982 -0.64260818 37.59334657 -0.5859375 33.10546875 C-0.56657135 32.15811356 -0.5472052 31.21075836 -0.5272522 30.23469543 C-0.46763629 27.21905423 -0.42114295 24.20337448 -0.375 21.1875 C-0.33680367 19.13865554 -0.29775098 17.08982686 -0.2578125 15.04101562 C-0.16194947 10.02747238 -0.07785193 5.01385397 0 0 Z " fill="#B4A2E9" transform="translate(388,280)"/>
<path d="M0 0 C2.5 1.375 2.5 1.375 5 3 C5 3.66 5 4.32 5 5 C5.66 5 6.32 5 7 5 C7 5.66 7 6.32 7 7 C7.721875 7.2475 8.44375 7.495 9.1875 7.75 C12 9 12 9 14.5 11.125 C17.32072652 13.24054489 18.56619488 13.39243487 22 13 C22 13.66 22 14.32 22 15 C19.03 15 16.06 15 13 15 C13 14.01 13 13.02 13 12 C11.68 11.67 10.36 11.34 9 11 C9 10.34 9 9.68 9 9 C7.02 9.33 5.04 9.66 3 10 C3 9.34 3 8.68 3 8 C2.01 7.67 1.02 7.34 0 7 C0.66 5.68 1.32 4.36 2 3 C1.34 3 0.68 3 0 3 C0 2.01 0 1.02 0 0 Z " fill="#8568EF" transform="translate(299,278)"/>
<path d="M0 0 C5.85662572 10.73211159 5.38683484 22.97401638 5.1875 34.8125 C5.17240852 36.39126311 5.1587281 37.97004036 5.14648438 39.54882812 C5.11387176 43.36624338 5.06234383 47.18295933 5 51 C4.67 51 4.34 51 4 51 C3.98541748 50.05793701 3.97083496 49.11587402 3.95581055 48.14526367 C3.89419199 44.59816839 3.81994159 41.05177797 3.73754883 37.50512695 C3.70461036 35.97983507 3.67648533 34.45443038 3.65356445 32.92895508 C3.52739601 24.74948202 3.24461952 17.06173045 0.65039062 9.2109375 C-0.28347017 6.03637167 -0.21887043 3.2830565 0 0 Z " fill="#B7A6EC" transform="translate(384,157)"/>
<path d="M0 0 C0.33 0.99 0.66 1.98 1 3 C-0.87194665 5.87991793 -2.38650958 7.68153204 -5.453125 9.2734375 C-8.69832601 11.47340506 -9.55511846 13.56488612 -11.125 17.125 C-12.5703125 20.3828125 -12.5703125 20.3828125 -14 23 C-14.99 23.33 -15.98 23.66 -17 24 C-14.67752281 14.19398518 -7.16205841 6.65978418 0 0 Z " fill="#A089EC" transform="translate(135,129)"/>
<path d="M0 0 C0.28875 0.61875 0.5775 1.2375 0.875 1.875 C1.93720042 4.13325765 1.93720042 4.13325765 4 6 C3.34 6 2.68 6 2 6 C2 7.98 2 9.96 2 12 C0.68 12.33 -0.64 12.66 -2 13 C-2 14.65 -2 16.3 -2 18 C-2.66 18 -3.32 18 -4 18 C-4.33 18.99 -4.66 19.98 -5 21 C-4.67021516 13.39845954 -2.87217429 7.02680781 0 0 Z " fill="#8C6EEE" transform="translate(117,153)"/>
<path d="M0 0 C0.33 0 0.66 0 1 0 C0.30834212 5.41798672 -0.75799248 10.6822785 -2 16 C-2.66 16 -3.32 16 -4 16 C-4.33 16.66 -4.66 17.32 -5 18 C-5.66 17.34 -6.32 16.68 -7 16 C-6.34 16 -5.68 16 -5 16 C-4.89042969 15.34773437 -4.78085937 14.69546875 -4.66796875 14.0234375 C-3.73491038 8.8802377 -2.65215917 4.58100221 0 0 Z " fill="#9078E9" transform="translate(326,204)"/>
<path d="M0 0 C1.32 0.33 2.64 0.66 4 1 C5.6290678 5.79137588 6.20577428 9.05632546 5 14 C3 13 3 13 2.1484375 10.56640625 C1.89320313 9.57511719 1.63796875 8.58382812 1.375 7.5625 C0.98441406 6.07943359 0.98441406 6.07943359 0.5859375 4.56640625 C0 2 0 2 0 0 Z " fill="#8264F2" transform="translate(321,157)"/>
<path d="M0 0 C0.33 0 0.66 0 1 0 C1.02578125 0.58007812 1.0515625 1.16015625 1.078125 1.7578125 C1.48567151 7.3708394 2.49364211 10.58877555 6 15 C4.68 15.33 3.36 15.66 2 16 C2 15.34 2 14.68 2 14 C0.68 14.33 -0.64 14.66 -2 15 C-2.33 13.68 -2.66 12.36 -3 11 C-2.01 11 -1.02 11 0 11 C-0.2784375 10.2265625 -0.2784375 10.2265625 -0.5625 9.4375 C-1.15419517 6.14091261 -0.567267 3.27754265 0 0 Z " fill="#9276F2" transform="translate(292,262)"/>
<path d="M0 0 C4.42761914 1.39153744 6.9556255 3.52071486 10 7 C10 7.66 10 8.32 10 9 C10.66 9 11.32 9 12 9 C11.67 9.66 11.34 10.32 11 11 C8.67843403 11.40729228 6.3431213 11.74438677 4 12 C4.350625 11.236875 4.70125 10.47375 5.0625 9.6875 C6.32360884 6.95240621 6.32360884 6.95240621 5 4 C4.34 3.835 3.68 3.67 3 3.5 C2.34 3.335 1.68 3.17 1 3 C0.67 2.01 0.34 1.02 0 0 Z " fill="#9379ED" transform="translate(302,194)"/>
<path d="M0 0 C1.65 0 3.3 0 5 0 C3.71034824 1.37562854 2.37310707 2.70766393 1 4 C0.34 4 -0.32 4 -1 4 C-1 4.66 -1 5.32 -1 6 C-2.96147874 7.38938077 -4.96166576 8.7260411 -7 10 C-7.33 9.01 -7.66 8.02 -8 7 C-7.01 7 -6.02 7 -5 7 C-5 6.01 -5 5.02 -5 4 C-4.01 4 -3.02 4 -2 4 C-2 3.34 -2 2.68 -2 2 C-1.34 2 -0.68 2 0 2 C0 1.34 0 0.68 0 0 Z " fill="#9177E9" transform="translate(309,241)"/>
<path d="M0 0 C3.0286516 1.03839484 5.03787926 2.03219737 7.5 4.125 C10.32072652 6.24054489 11.56619488 6.39243487 15 6 C15 6.66 15 7.32 15 8 C12.03 8 9.06 8 6 8 C6 7.01 6 6.02 6 5 C4.68 4.67 3.36 4.34 2 4 C2 3.34 2 2.68 2 2 C1.34 2 0.68 2 0 2 C0 1.34 0 0.68 0 0 Z " fill="#8D74E8" transform="translate(306,285)"/>
<path d="M0 0 C3.22385295 5.52660506 4.31675402 11.66491954 4 18 C0.5965383 14.5965383 0.14884531 9.55827869 -0.125 4.8515625 C-0.125 3.23383832 -0.06877709 1.6162615 0 0 Z " fill="#997FE6" transform="translate(384,157)"/>
<path d="M0 0 C3.35433109 0.94933899 6.69246505 1.89748835 10 3 C10 4.65 10 6.3 10 8 C6.05205855 6.32971708 3.18203882 3.8204435 0 1 C0 0.67 0 0.34 0 0 Z " fill="#9279EC" transform="translate(328,175)"/>
<path d="M0 0 C0.66 0 1.32 0 2 0 C2 1.32 2 2.64 2 4 C2.99 4.33 3.98 4.66 5 5 C4.67 7.31 4.34 9.62 4 12 C2.68 10.68 1.36 9.36 0 8 C0.66 8 1.32 8 2 8 C1.67 7.4225 1.34 6.845 1 6.25 C0 4 0 4 0 0 Z " fill="#6D49F0" transform="translate(312,154)"/>
<path d="M0 0 C4.59306496 1.4859916 7.43569245 3.85014682 11 7 C8 8 8 8 5 7 C3.11864786 5.13454661 1.62429515 3.10719371 0 1 C0 0.67 0 0.34 0 0 Z " fill="#A089E9" transform="translate(356,123)"/>
<path d="M0 0 C-3 2 -3 2 -5.125 2.4375 C-5.74375 2.623125 -6.3625 2.80875 -7 3 C-7.33 3.99 -7.66 4.98 -8 6 C-9.65 5.67 -11.3 5.34 -13 5 C-10.74037349 0.48074698 -4.66953512 -0.42450319 0 0 Z " fill="#8266E7" transform="translate(158,118)"/>
<path d="M0 0 C0.33 0.66 0.66 1.32 1 2 C1.598125 2.268125 2.19625 2.53625 2.8125 2.8125 C5.65198628 4.35393541 7.10192934 6.42404696 9 9 C6 9 6 9 4.17578125 7.46875 C3.56089844 6.8190625 2.94601563 6.169375 2.3125 5.5 C1.68988281 4.8503125 1.06726563 4.200625 0.42578125 3.53125 C-0.04472656 3.0259375 -0.51523438 2.520625 -1 2 C-0.67 1.34 -0.34 0.68 0 0 Z " fill="#866BE9" transform="translate(126,356)"/>
<path d="M0 0 C0.66 0.66 1.32 1.32 2 2 C1.65561395 6.13263259 -0.06429969 9.38108204 -2 13 C-2.33 13 -2.66 13 -3 13 C-3.46192125 8.07284004 -1.8275283 4.49267375 0 0 Z " fill="#9779EC" transform="translate(381,340)"/>
<path d="M0 0 C0.33 0 0.66 0 1 0 C0.88570603 1.77155654 0.75816963 3.54226229 0.625 5.3125 C0.52058594 6.79169922 0.52058594 6.79169922 0.4140625 8.30078125 C0 11 0 11 -2 14 C-2.3690205 4.58997722 -2.3690205 4.58997722 0 0 Z " fill="#977AE6" transform="translate(387,323)"/>
<path d="M0 0 C0.33 0.99 0.66 1.98 1 3 C-1.15343189 6.23014784 -2.27059611 7.75686537 -6 9 C-5.52797514 4.75177626 -3.03344482 2.80010291 0 0 Z " fill="#886CEC" transform="translate(135,129)"/>
<path d="M0 0 C2.87985784 0.42955863 5.53813177 1.52295051 8.25 2.5625 C8.95640625 2.83191406 9.6628125 3.10132812 10.390625 3.37890625 C10.92171875 3.58386719 11.4528125 3.78882812 12 4 C11.67 4.66 11.34 5.32 11 6 C9.68 5.67 8.36 5.34 7 5 C7 4.34 7 3.68 7 3 C4.03 2.67 1.06 2.34 -2 2 C-1.34 1.34 -0.68 0.68 0 0 Z " fill="#A087EE" transform="translate(343,117)"/>
<path d="M0 0 C0.625 1.8125 0.625 1.8125 1 4 C0.01 5.485 0.01 5.485 -1 7 C-2.32 6.34 -3.64 5.68 -5 5 C-5 4.01 -5 3.02 -5 2 C-3.35 1.34 -1.7 0.68 0 0 Z " fill="#8B70F3" transform="translate(376,352)"/>
<path d="M0 0 C-2.66666667 1.33333333 -5.33333333 2.66666667 -8 4 C-8.33 2.35 -8.66 0.7 -9 -1 C-5.79937313 -2.60031344 -3.27728194 -1.03173691 0 0 Z " fill="#8B6FEE" transform="translate(185,190)"/>
<path d="M0 0 C0.66 0.66 1.32 1.32 2 2 C0.35 3.65 -1.3 5.3 -3 7 C-3 6.34 -3 5.68 -3 5 C-3.66 5 -4.32 5 -5 5 C-4.34 3.68 -3.68 2.36 -3 1 C-2.34 1.33 -1.68 1.66 -1 2 C-0.67 1.34 -0.34 0.68 0 0 Z " fill="#9073F0" transform="translate(311,173)"/>
<path d="M0 0 C1.70884005 1.62339805 3.37446717 3.29319053 5 5 C5 5.66 5 6.32 5 7 C5.66 7 6.32 7 7 7 C6.67 7.66 6.34 8.32 6 9 C5.01 9 4.02 9 3 9 C2.67 7.35 2.34 5.7 2 4 C1.34 4 0.68 4 0 4 C0 2.68 0 1.36 0 0 Z " fill="#977DEB" transform="translate(370,134)"/>
<path d="M0 0 C0.99 0 1.98 0 3 0 C2.67 1.32 2.34 2.64 2 4 C2.99 4 3.98 4 5 4 C5 5.98 5 7.96 5 10 C3 9 3 9 2.1484375 6.93359375 C1.89320312 6.10988281 1.63796875 5.28617187 1.375 4.4375 C1.11460938 3.61121094 0.85421875 2.78492188 0.5859375 1.93359375 C0.39257812 1.29550781 0.19921875 0.65742188 0 0 Z " fill="#9E83EE" transform="translate(116,340)"/>
<path d="M0 0 C2.31 0 4.62 0 7 0 C7.33 1.32 7.66 2.64 8 4 C7.05125 3.814375 6.1025 3.62875 5.125 3.4375 C2.10131207 2.71313368 2.10131207 2.71313368 0 4 C0 2.68 0 1.36 0 0 Z " fill="#8767E8" transform="translate(314,237)"/>
<path d="M0 0 C0.99 0.495 0.99 0.495 2 1 C3.1577506 4.47325181 3.06866652 7.36067448 3 11 C2.34 10.67 1.68 10.34 1 10 C0.5859375 7.71484375 0.5859375 7.71484375 0.375 4.9375 C0.30023438 4.01839844 0.22546875 3.09929687 0.1484375 2.15234375 C0.09945313 1.44207031 0.05046875 0.73179687 0 0 Z " fill="#7B60E1" transform="translate(278,213)"/>
<path d="M0 0 C0.33 0 0.66 0 1 0 C1.33 1.98 1.66 3.96 2 6 C0.35 6.33 -1.3 6.66 -3 7 C-3.33 5.68 -3.66 4.36 -4 3 C-2.68 3 -1.36 3 0 3 C0 2.01 0 1.02 0 0 Z " fill="#8566F5" transform="translate(317,214)"/>
<path d="M0 0 C0.99 0.33 1.98 0.66 3 1 C3 4.3 3 7.6 3 11 C1.04783565 7.09567131 0.49360009 4.27786748 0 0 Z " fill="#A78EEC" transform="translate(113,329)"/>
<path d="M0 0 C0.28875 0.61875 0.5775 1.2375 0.875 1.875 C1.93720042 4.13325765 1.93720042 4.13325765 4 6 C3.34 6 2.68 6 2 6 C1.67 6.66 1.34 7.32 1 8 C0.01 8 -0.98 8 -2 8 C-1.47731534 5.23723823 -0.89130413 2.6739124 0 0 Z " fill="#9577F0" transform="translate(117,153)"/>
<path d="M0 0 C0.66 0.33 1.32 0.66 2 1 C1.67 1.66 1.34 2.32 1 3 C0.34 3 -0.32 3 -1 3 C-1.66 4.32 -2.32 5.64 -3 7 C-3 6.34 -3 5.68 -3 5 C-4.32 5.33 -5.64 5.66 -7 6 C-4.74259377 3.66475218 -2.7194239 1.81294927 0 0 Z " fill="#8B70EC" transform="translate(143,123)"/>
<path d="M0 0 C0.33 0.99 0.66 1.98 1 3 C0.67 3.66 0.34 4.32 0 5 C-2.4375 4.625 -2.4375 4.625 -5 4 C-5.33 3.34 -5.66 2.68 -6 2 C-4.02 1.34 -2.04 0.68 0 0 Z " fill="#8D6CEC" transform="translate(161,376)"/>
<path d="M0 0 C0 0.66 0 1.32 0 2 C-2.97 2.66 -5.94 3.32 -9 4 C-9.33 3.34 -9.66 2.68 -10 2 C-3.375 0 -3.375 0 0 0 Z " fill="#8469E3" transform="translate(349,191)"/>
<path d="M0 0 C0.99 0 1.98 0 3 0 C3.625 3.375 3.625 3.375 4 7 C3.34 7.66 2.68 8.32 2 9 C1.34 6.03 0.68 3.06 0 0 Z " fill="#A48DEC" transform="translate(321,157)"/>
<path d="M0 0 C2.64 0.33 5.28 0.66 8 1 C6.75 2.5625 6.75 2.5625 5 4 C2.875 3.875 2.875 3.875 1 3 C0.67 2.01 0.34 1.02 0 0 Z M8 0 C10 1 10 1 10 1 Z " fill="#7C5FEC" transform="translate(142,371)"/>
<path d="M0 0 C2.475 0.99 2.475 0.99 5 2 C5 2.99 5 3.98 5 5 C4.01 5 3.02 5 2 5 C1.34 3.35 0.68 1.7 0 0 Z " fill="#8A6EEE" transform="translate(121,350)"/>
<path d="M0 0 C0.66 0.33 1.32 0.66 2 1 C1.67 1.66 1.34 2.32 1 3 C0.34 3 -0.32 3 -1 3 C-1.33 3.99 -1.66 4.98 -2 6 C-3.32 5.34 -4.64 4.68 -6 4 C-4.02 2.68 -2.04 1.36 0 0 Z " fill="#9981ED" transform="translate(268,295)"/>
<path d="M0 0 C2.97 0.495 2.97 0.495 6 1 C5.67 2.65 5.34 4.3 5 6 C3.31237149 4.3545622 1.6459651 2.68711423 0 1 C0 0.67 0 0.34 0 0 Z " fill="#8967E7" transform="translate(270,201)"/>
</svg>
